<?xml version="1.0" encoding="UTF-8" standalone="no"?>
<svg 
  version="1.1" 
  xmlns="http://www.w3.org/2000/svg" 
  xmlns:xlink="http://www.w3.org/1999/xlink" 
  xmlns:svg="http://www.w3.org/2000/svg"
  xmlns:rdf="http://www.w3.org/1999/02/22-rdf-syntax-ns#"
  xmlns:cc="http://creativecommons.org/ns#"
  xmlns:dc="http://purl.org/dc/elements/1.1/"
  viewBox="0 0 768 768"
  width="768"
  height="768"
>
<style>svg {background-color: white; }</style>"
<metadata id="metadata1">
Created by https://svgstud.io and licensed under CC-BY-SA 4.0 license. Please attribute https://svgstud.io
</metadata>
<metadata id="prompt">
portfolio website icon
</metadata>
<metadata id="version">
7
</metadata>
<metadata id="metadata2">
<rdf:RDF>
<cc:Work
    rdf:about="">
    <cc:license
    rdf:resource="http://creativecommons.org/licenses/by-sa/4.0/" />
    <dc:creator>
        <cc:Agent>
            <dc:title>https://svgstud.io</dc:title>
        </cc:Agent>
    </dc:creator>
</cc:Work>
<cc:License
    rdf:about="http://creativecommons.org/licenses/by-sa/4.0/">
    <cc:permits
    rdf:resource="http://creativecommons.org/ns#Reproduction" />
    <cc:permits
    rdf:resource="http://creativecommons.org/ns#Distribution" />
    <cc:requires
    rdf:resource="http://creativecommons.org/ns#Notice" />
    <cc:requires
    rdf:resource="http://creativecommons.org/ns#Attribution" />
    <cc:permits
    rdf:resource="http://creativecommons.org/ns#DerivativeWorks" />
    <cc:requires
    rdf:resource="http://creativecommons.org/ns#ShareAlike" />
</cc:License>
</rdf:RDF>
</metadata>
<metadata id="uid">
488d15e2d7daa23603b5008a95b77ec7fbbcf632c11140c2fc77adb7bf5dee2d
</metadata>
<path stroke="none" fill="black" fill-rule="evenodd" d="M387.00,578.69C251.29,578.84 219.72,578.63 216.29,577.56C213.97,576.83 210.08,575.06 207.63,573.63C205.19,572.20 201.36,568.94 199.11,566.39C196.86,563.83 193.78,559.21 192.26,556.12C189.50,550.50 189.50,550.50 189.84,382.50C190.04,283.67 190.56,212.99 191.11,210.82C191.62,208.80 193.64,204.75 195.59,201.82C197.55,198.89 201.02,194.80 203.32,192.72C205.62,190.63 210.22,187.58 213.54,185.93C216.86,184.28 222.49,182.49 226.04,181.94C230.17,181.31 289.40,181.05 390.00,181.22C547.50,181.50 547.50,181.50 553.47,184.29C556.75,185.83 561.79,188.87 564.66,191.04C567.54,193.21 571.34,197.08 573.10,199.65C574.87,202.21 577.18,206.60 578.25,209.41C580.13,214.37 580.19,218.90 580.30,382.50C580.42,550.50 580.42,550.50 577.78,556.22C576.33,559.36 573.08,564.14 570.56,566.84C568.04,569.53 563.17,573.26 559.74,575.12C553.50,578.50 553.50,578.50 387.00,578.69zM387.00,560.65C534.65,560.51 547.74,560.37 550.50,558.84C552.15,557.92 554.99,555.70 556.82,553.90C558.65,552.10 560.90,549.24 561.82,547.56C563.37,544.74 563.52,531.90 563.76,381.73C564.02,218.97 564.02,218.97 561.90,214.73C560.74,212.40 558.37,209.00 556.64,207.16C554.91,205.32 551.25,202.62 548.50,201.16C543.50,198.50 543.50,198.50 404.07,198.50C289.84,198.50 264.40,198.74 263.32,199.82C262.31,200.83 262.00,205.93 262.00,221.32C262.01,240.85 262.09,241.66 264.50,246.42C266.30,249.96 267.00,252.94 267.00,257.04C267.00,260.18 266.31,264.71 265.46,267.11C264.61,269.51 262.70,272.76 261.21,274.33C259.72,275.89 257.15,277.89 255.50,278.76C253.81,279.65 249.88,280.37 246.50,280.42C241.65,280.48 239.59,279.97 235.78,277.72C232.78,275.96 230.09,273.30 228.40,270.42C226.30,266.83 225.75,264.60 225.75,259.65C225.75,255.25 226.38,252.18 227.89,249.22C229.06,246.92 231.26,244.27 232.76,243.33C234.27,242.40 236.06,240.96 236.75,240.13C237.66,239.03 238.00,233.18 238.00,218.81C238.00,199.00 238.00,199.00 232.25,199.01C229.09,199.01 224.78,199.49 222.68,200.07C220.58,200.66 217.06,202.76 214.86,204.75C212.66,206.74 209.91,210.19 208.76,212.43C207.03,215.80 206.52,219.34 205.82,233.00C205.34,242.07 205.08,315.69 205.23,396.58C205.50,543.66 205.50,543.66 208.52,548.55C210.19,551.24 213.39,554.73 215.65,556.32C217.90,557.90 221.27,559.56 223.12,560.00C224.98,560.45 298.73,560.74 387.00,560.65zM387.50,531.39C307.20,531.67 240.27,531.50 238.76,531.03C237.26,530.56 234.47,529.22 232.56,528.04C230.66,526.86 228.07,524.23 226.80,522.20C224.58,518.62 224.49,517.63 224.19,492.30C223.98,474.60 224.24,465.43 224.98,464.04C226.07,461.99 226.34,461.99 299.29,462.24C372.50,462.50 372.50,462.50 372.50,467.50C372.50,472.50 372.50,472.50 456.40,472.76C516.37,472.94 540.69,473.33 541.65,474.13C542.57,474.89 543.00,477.72 543.00,483.00C543.00,487.98 542.55,491.13 541.75,491.79C540.92,492.48 513.13,492.94 458.40,493.16C390.66,493.44 376.02,493.74 374.65,494.87C373.44,495.88 373.00,497.90 373.00,502.50C373.00,507.10 373.44,509.12 374.65,510.13C376.01,511.26 390.99,511.59 459.40,512.00C542.50,512.50 542.50,512.50 542.80,518.85C543.01,523.31 542.64,525.90 541.56,527.55C540.64,528.95 538.69,530.11 536.76,530.40C534.97,530.68 467.80,531.12 387.50,531.39zM392.00,450.69C326.65,450.84 305.43,450.60 301.95,449.65C299.45,448.97 295.77,447.40 293.77,446.17C291.77,444.93 288.70,442.28 286.94,440.28C285.18,438.27 282.91,434.80 281.89,432.57C280.14,428.72 280.04,424.04 280.03,345.00C280.02,261.50 280.02,261.50 282.46,256.50C283.79,253.75 285.48,250.79 286.20,249.92C286.91,249.05 289.66,246.70 292.29,244.70C294.93,242.70 298.86,240.57 301.05,239.99C303.71,239.27 333.23,238.92 391.09,238.91C477.18,238.91 477.18,238.91 481.84,241.16C484.40,242.40 488.52,245.46 491.00,247.96C493.83,250.82 496.24,254.54 497.50,258.00C499.44,263.33 499.50,265.91 499.43,343.50C499.38,415.11 499.20,424.08 497.71,429.00C496.79,432.02 494.35,436.71 492.27,439.40C490.09,442.24 486.19,445.61 483.00,447.40C477.50,450.50 477.50,450.50 392.00,450.69zM527.28,444.96C526.30,444.94 524.11,444.32 522.42,443.58C520.72,442.84 518.36,441.00 517.17,439.48C515.78,437.72 515.00,435.32 515.00,432.82C515.00,430.66 515.67,427.61 516.48,426.03C517.30,424.45 519.28,422.22 520.89,421.08C522.49,419.94 525.24,419.00 527.00,419.00C528.76,419.00 531.44,419.74 532.96,420.64C534.48,421.54 536.46,423.52 537.36,425.04C538.26,426.56 539.00,429.67 539.00,431.95C539.00,434.23 538.30,437.46 537.43,439.13C536.56,440.81 534.36,442.79 532.47,443.58C530.59,444.36 528.26,444.98 527.28,444.96zM394.53,443.00C395.80,443.00 397.55,442.73 398.42,442.39C399.62,441.93 400.00,440.31 400.02,435.64C400.02,432.26 399.50,417.12 398.85,402.00C397.76,376.66 397.81,373.87 399.45,366.50C400.43,362.10 402.37,356.26 403.75,353.53C405.13,350.79 409.03,345.78 412.42,342.39C415.82,339.00 421.72,334.22 425.54,331.77C429.37,329.32 437.57,324.69 443.76,321.50C449.95,318.30 455.33,316.00 455.71,316.37C456.09,316.75 455.85,320.22 455.19,324.08C454.53,327.94 453.04,332.96 451.89,335.23C450.73,337.49 447.47,341.64 444.64,344.45C441.81,347.25 432.98,353.88 425.00,359.17C417.02,364.47 409.21,370.17 407.63,371.83C405.94,373.61 404.41,376.65 403.92,379.18C403.46,381.56 403.07,386.33 403.04,389.78C403.01,394.22 403.40,396.22 404.37,396.59C405.13,396.88 409.88,396.15 414.94,394.96C419.99,393.78 427.13,391.29 430.81,389.44C434.49,387.59 439.94,383.94 442.92,381.32C445.89,378.70 450.50,373.23 453.16,369.16C455.85,365.04 459.05,358.38 460.39,354.13C461.70,349.93 463.33,342.42 464.01,337.42C464.70,332.29 465.07,322.20 464.85,314.20C464.60,305.01 464.04,299.64 463.26,298.86C462.32,297.92 459.89,298.38 452.28,300.93C446.90,302.73 441.89,304.43 441.15,304.71C440.06,305.13 440.03,304.81 440.98,303.03C441.89,301.34 441.88,299.65 440.93,295.67C440.25,292.83 438.88,288.58 437.88,286.24C436.88,283.90 434.29,279.40 432.12,276.24C429.95,273.08 425.66,267.95 422.58,264.83C419.50,261.71 414.24,257.09 410.89,254.58C407.54,252.06 403.80,250.00 402.57,250.00C401.35,250.00 398.13,251.43 395.42,253.19C392.71,254.94 386.45,260.47 381.50,265.48C375.03,272.03 371.11,277.08 367.54,283.47C364.80,288.36 361.71,294.86 360.65,297.93C359.50,301.28 358.57,307.29 358.31,313.00C358.08,318.23 358.25,322.98 358.69,323.56C359.14,324.14 363.47,327.19 368.32,330.33C373.17,333.48 377.66,336.15 378.28,336.27C379.11,336.44 379.35,332.85 379.16,323.50C378.97,314.21 379.34,308.79 380.45,304.50C381.30,301.20 384.23,294.00 386.95,288.50C389.67,283.00 394.24,274.79 397.10,270.26C401.26,263.67 402.58,262.24 403.67,263.14C404.41,263.76 405.91,267.24 406.99,270.88C408.07,274.52 409.41,280.43 409.97,284.00C410.53,287.57 410.98,295.45 410.98,301.50C410.97,311.14 410.61,313.49 408.06,320.50C406.46,324.90 403.15,333.45 400.71,339.50C398.27,345.55 395.48,352.68 394.51,355.35C392.76,360.20 392.76,360.20 387.13,354.71C384.03,351.70 378.22,346.72 374.21,343.66C370.19,340.60 363.57,336.25 359.49,333.99C355.40,331.74 348.11,328.55 343.28,326.90C338.45,325.25 331.65,323.55 328.16,323.12C321.98,322.36 321.80,322.40 320.71,324.92C320.04,326.47 319.59,334.25 319.59,344.50C319.58,358.75 319.94,362.94 321.80,370.37C323.02,375.26 325.68,382.46 327.72,386.37C330.16,391.08 333.98,396.08 338.96,401.09C344.53,406.70 348.46,409.63 354.00,412.32C358.19,414.35 364.37,416.41 368.00,416.97C371.57,417.53 377.94,417.99 382.13,417.99C389.20,418.00 389.81,418.17 390.37,420.25C390.70,421.49 390.98,426.10 391.00,430.50C391.02,434.90 391.30,439.51 391.63,440.75C392.03,442.26 392.99,443.00 394.53,443.00zM244.50,407.00C230.98,407.00 225.05,406.65 224.20,405.80C223.52,405.12 223.00,401.87 223.00,398.34C223.00,393.16 223.34,391.89 224.93,391.04C226.07,390.43 234.49,390.00 245.23,390.00C258.19,390.00 263.95,390.35 264.80,391.20C265.47,391.87 266.00,395.09 266.00,398.50C266.00,401.91 265.47,405.13 264.80,405.80C263.95,406.65 258.02,407.00 244.50,407.00zM387.94,400.69C387.15,400.80 381.77,399.79 376.00,398.45C370.23,397.11 362.57,394.59 359.00,392.85C354.38,390.60 350.02,387.20 343.94,381.09C336.77,373.90 335.00,371.47 333.12,366.20C331.87,362.74 330.64,358.24 330.38,356.20C329.92,352.67 330.04,352.78 333.01,358.50C334.72,361.80 337.98,366.40 340.24,368.72C342.50,371.04 347.34,374.51 350.98,376.42C354.62,378.33 360.95,381.10 365.05,382.56C369.15,384.02 375.54,386.70 379.25,388.52C386.00,391.81 386.00,391.81 386.00,388.87C386.00,387.25 385.12,384.20 384.05,382.10C382.98,380.00 380.16,376.44 377.80,374.20C375.43,371.97 372.38,369.27 371.00,368.21C369.62,367.15 361.98,362.14 354.00,357.07C346.02,352.00 338.04,346.45 336.25,344.73C334.46,343.01 333.00,341.02 333.00,340.30C333.00,339.59 333.13,339.00 333.30,339.00C333.46,339.00 338.75,340.74 345.05,342.86C351.35,344.98 360.10,348.21 364.50,350.03C368.90,351.85 374.09,354.34 376.04,355.56C377.99,356.77 381.09,359.48 382.94,361.58C384.78,363.68 387.20,367.45 388.31,369.95C389.70,373.09 390.46,377.44 390.77,384.00C391.01,389.23 390.80,395.07 390.29,397.00C389.79,398.92 388.73,400.58 387.94,400.69zM244.48,368.00C226.31,368.00 225.00,367.88 224.04,366.07C223.47,365.00 223.00,362.16 223.00,359.76C223.00,357.35 223.56,354.65 224.25,353.75C225.31,352.37 228.39,352.08 244.79,351.81C261.05,351.55 264.23,351.73 265.09,353.00C265.65,353.82 265.90,357.06 265.65,360.18C265.40,363.31 264.90,366.34 264.54,366.93C264.11,367.63 257.16,368.00 244.48,368.00zM245.50,326.22C236.15,326.37 227.49,326.36 226.25,326.18C224.91,325.99 223.78,324.96 223.44,323.63C223.13,322.40 223.02,318.96 223.19,315.98C223.48,310.85 223.65,310.55 226.50,310.04C228.15,309.74 237.38,309.73 247.00,310.00C264.50,310.50 264.50,310.50 264.79,317.76C265.01,323.02 264.73,325.15 263.79,325.48C263.08,325.73 254.85,326.06 245.50,326.22zM521.94,254.94C519.50,254.90 516.60,254.50 515.50,254.05C514.40,253.59 512.52,252.16 511.32,250.86C510.12,249.56 508.65,247.23 508.07,245.68C507.48,244.14 507.00,241.47 507.00,239.75C507.00,238.04 507.97,234.63 509.15,232.19C510.81,228.76 512.30,227.31 515.75,225.79C518.68,224.49 521.28,224.02 523.35,224.41C525.08,224.74 527.99,225.91 529.81,227.02C531.72,228.19 533.93,230.83 535.04,233.27C536.09,235.60 536.97,238.60 536.98,239.93C536.99,241.27 536.11,244.20 535.01,246.43C533.92,248.67 531.53,251.51 529.70,252.75C527.43,254.29 524.97,254.98 521.94,254.94z" />

</svg>